<?xml version="1.0" encoding="utf-8"?>
<!-- Generator: Adobe Illustrator 24.3.0, SVG Export Plug-In . SVG Version: 6.00 Build 0)  -->
<svg version="1.1" xmlns="http://www.w3.org/2000/svg" xmlns:xlink="http://www.w3.org/1999/xlink" x="0px" y="0px"
	 viewBox="0 0 500 500" style="enable-background:new 0 0 500 500;" xml:space="preserve">
<style type="text/css">
	.st0{fill:#FFFFFF;}
	.st1{fill:#39BEEC;}
	.st2{fill:#1B60A3;}
</style>
<g id="Layer_3">
</g>
<g id="Layer_4_1_">
</g>
<g id="Layer_2">
	<path class="st0" d="M266,330.6v-95.2c22.1-1.5,61.8-8.1,89.1-35.4C394.1,161,391,97.2,390.9,94.5c-0.4-7.9-6.8-14.2-14.7-14.7
		c-2.7-0.2-66.5-3.2-105.4,35.7c-4.1,4.1-7.8,8.6-11,13.2c-5.7-22.9-16.4-48.5-36.4-68.5c-46.5-46.5-123-42.8-126.2-42.7
		c-7.9,0.4-14.2,6.8-14.7,14.7c-0.2,3.2-3.8,79.7,42.7,126.2c34.1,34.1,84.2,41.2,109.9,42.5v129.7c5.1-0.6,10.3-0.9,15.5-0.9
		C255.7,329.8,260.9,330.1,266,330.6L266,330.6z"/>
</g>
<g id="Layer_1">
	<circle class="st0" cx="252.5" cy="368.5" r="109.4"/>
	<circle class="st1" cx="363.4" cy="368.5" r="109.4"/>
	<circle class="st2" cx="137.3" cy="368.5" r="109.4"/>
</g>
</svg>
